<svg version="1.1" id="Layer_1" xmlns="http://www.w3.org/2000/svg" xmlns:xlink="http://www.w3.org/1999/xlink" x="0px" y="0px"
	 width="100%" viewBox="0 0 1204 248" enable-background="new 0 0 1204 248" xml:space="preserve">
<path fill="#000000" opacity="1.000000" stroke="none" 
	d="
M213.000000,249.000000 
	C142.455261,249.000000 71.910515,249.000000 1.000000,249.000000 
	C1.000000,235.980270 1.000000,222.957108 1.468657,209.466980 
	C56.235558,209.000000 110.533798,209.000000 163.998047,209.000000 
	C163.998047,193.178040 163.998047,177.755325 163.998047,161.950592 
	C142.906830,161.950592 121.190628,161.950592 98.869110,161.950592 
	C113.089272,144.335190 126.884277,127.246437 140.664551,110.175949 
	C138.202209,108.574661 136.719772,107.181168 134.963364,106.549751 
	C129.902603,104.730453 125.950539,100.545662 119.444656,101.774132 
	C109.696968,103.614731 99.683952,104.542564 89.762985,104.724358 
	C85.936264,104.794479 83.455376,105.376602 81.258690,108.221390 
	C79.663063,110.287773 77.920082,112.239632 76.288071,114.278786 
	C64.394714,129.139114 52.531086,144.023239 40.621994,158.870926 
	C29.621502,172.585846 18.622696,186.302750 7.504886,199.922241 
	C5.645348,202.200195 3.183528,203.986511 1.000001,206.000000 
	C1.000000,137.746704 1.000000,69.493416 1.000000,1.000000 
	C56.021782,1.000000 111.043907,1.000000 166.820435,1.288080 
	C158.298203,13.157255 149.021576,24.738350 139.507233,36.616211 
	C149.638565,36.046829 159.019653,34.592125 168.246185,35.263046 
	C177.394501,35.928280 186.387085,38.735065 195.447968,40.602592 
	C195.888321,41.528587 196.569855,41.040295 197.078812,40.412167 
	C205.072006,30.547634 213.086823,20.699989 220.993286,10.766173 
	C223.485229,7.635234 225.673019,4.262228 228.000000,1.000001 
	C553.666687,1.000000 879.333313,1.000000 1205.000000,1.000000 
	C1205.000000,21.082710 1205.000000,41.074371 1204.691284,61.824657 
	C1192.943726,44.480160 1177.575806,50.749195 1162.239258,55.750046 
	C1162.085938,54.610588 1161.921143,53.386856 1161.772095,52.280216 
	C1155.046143,52.280216 1148.636597,52.280216 1142.255493,52.280216 
	C1142.255493,72.614281 1142.255493,92.667122 1142.255493,112.749939 
	C1149.246216,112.749939 1155.978516,112.749939 1163.000000,112.749939 
	C1163.000000,100.383774 1162.991333,88.265503 1163.004150,76.147247 
	C1163.009277,71.237686 1165.238037,68.891365 1171.400269,67.218246 
	C1176.138184,65.931854 1181.964233,67.705200 1183.577515,71.208527 
	C1184.153931,72.460564 1183.981445,74.102249 1183.984619,75.566467 
	C1184.011475,87.979187 1184.000000,100.391983 1184.000000,113.000000 
	C1191.391602,113.000000 1198.195801,113.000000 1205.000000,113.000000 
	C1205.000000,158.315720 1205.000000,203.631454 1205.000000,249.000000 
	C877.977966,249.000000 550.955994,249.000000 223.173676,248.680252 
	C227.407394,245.884796 232.515991,243.613174 237.369705,240.887665 
	C245.551987,236.293030 252.563965,230.525803 257.080078,221.901672 
	C264.889648,206.988327 263.536926,190.918274 262.709473,175.197388 
	C262.049988,162.666580 261.043030,150.188156 264.181641,138.037384 
	C267.339386,125.812561 273.545166,115.105263 284.070984,107.388931 
	C288.401978,104.213928 292.530548,100.762810 296.751190,97.437294 
	C296.707977,96.954262 296.664764,96.471237 296.621552,95.988205 
	C288.904205,95.325470 281.185608,94.101143 273.469788,94.118469 
	C258.041931,94.153114 247.104065,102.535873 238.792877,114.725441 
	C230.339813,127.123100 225.961136,141.185272 222.995544,155.737503 
	C221.503845,163.057266 220.131592,170.401367 218.705338,177.734467 
	C216.767700,172.301636 216.129669,166.745087 214.953110,161.305038 
	C211.454117,145.126785 207.467743,129.175766 198.079193,115.042648 
	C187.193420,98.655678 172.008759,92.112564 152.875107,94.094391 
	C148.453705,94.552353 144.152756,96.173004 139.646759,97.295906 
	C140.120346,98.313339 140.147659,98.528465 140.261536,98.594604 
	C168.209183,114.829559 176.266449,136.138245 174.830582,164.930634 
	C174.098953,179.601730 172.801254,194.245132 175.133987,208.787430 
	C176.634033,218.138687 180.558746,227.142090 187.982147,233.068161 
	C194.778946,238.494034 203.135590,241.956131 210.745056,246.386292 
	C211.685257,246.933670 212.257339,248.113342 213.000000,249.000000 
M145.473709,46.000004 
	C132.393692,47.665508 119.353363,49.822182 106.224495,50.883125 
	C85.761063,52.536770 66.003845,49.029305 47.202209,40.638062 
	C36.945297,36.060364 27.682825,30.075920 20.467173,20.958248 
	C20.338814,25.194628 20.232639,29.269382 21.107635,33.121250 
	C25.340836,51.756397 33.476295,68.176826 49.326584,79.770996 
	C61.981983,89.028168 76.114693,94.358139 91.914345,95.018494 
	C104.957474,95.563637 117.406532,92.112160 129.966080,89.493736 
	C143.093979,86.756813 155.961792,82.528099 169.737976,84.924149 
	C178.077271,86.374580 185.803162,88.961418 191.626038,95.233620 
	C200.229889,104.501411 208.443451,114.130905 216.927826,123.511726 
	C217.490341,124.133675 219.557266,124.466232 219.880539,124.073700 
	C225.355347,117.425819 230.541489,110.539345 236.043152,103.914673 
	C242.245804,96.445938 249.465591,90.351135 258.832672,86.924652 
	C272.406219,81.959465 285.729980,84.771027 299.086060,87.562080 
	C316.817200,91.267418 334.183472,97.113686 352.838776,94.103714 
	C368.631317,91.555664 382.424408,85.107430 393.993225,74.348099 
	C404.790710,64.306198 411.058899,51.319973 414.786407,37.227482 
	C416.035980,32.503288 415.833374,27.394974 416.294525,22.462236 
	C415.860107,22.293917 415.425659,22.125595 414.991211,21.957273 
	C411.934448,25.191311 409.318481,29.056990 405.745117,31.550816 
	C389.708557,42.742668 371.607758,49.623108 352.294647,50.624023 
	C336.307922,51.452553 320.074310,49.635406 304.091187,47.776752 
	C290.077148,46.147079 276.176788,43.600288 262.096436,46.066597 
	C250.648819,48.071758 240.930099,53.078716 233.587585,62.689823 
	C225.908386,72.741615 221.839966,83.980476 219.930695,96.258972 
	C219.765839,97.319237 218.672775,98.235168 218.064651,99.138290 
	C216.102386,92.013573 214.699417,85.368919 212.442856,79.028030 
	C206.565308,62.512257 196.017441,50.070885 178.167130,46.941013 
	C167.842285,45.130653 157.009506,46.217201 145.473709,46.000004 
M380.597687,95.036972 
	C365.162994,103.434448 348.855408,106.953362 331.332916,104.046242 
	C328.385956,103.557320 325.871246,103.843628 324.030914,107.267464 
	C320.230652,114.337616 315.732513,121.030586 311.576660,127.912086 
	C300.939117,145.526505 290.722900,163.412247 279.548950,180.678757 
	C273.879578,189.439362 272.057709,198.577225 272.044067,208.996841 
	C286.918213,208.996841 301.536285,209.063797 316.151184,208.880051 
	C317.432770,208.863922 319.157654,207.483658 319.892578,206.264404 
	C327.357147,193.880554 334.579651,181.350983 342.024933,168.955307 
	C352.455688,151.589066 363.059631,134.326904 373.506317,116.970177 
	C378.396332,108.845566 383.091644,100.603714 388.640564,91.104820 
	C385.275635,92.890671 383.318787,93.929214 380.597687,95.036972 
M557.553101,31.000000 
	C555.116638,31.000000 552.680176,31.000000 550.265869,31.000000 
	C550.265869,58.606606 550.265869,85.673378 550.265869,112.731804 
	C557.605774,112.731804 564.676880,112.731804 572.324097,112.731804 
	C572.324097,99.003998 572.324097,85.537109 572.324097,72.070221 
	C576.655884,78.377426 579.849915,84.945862 583.089478,91.491745 
	C587.152832,99.702164 587.174500,99.755844 596.500366,98.923691 
	C597.704407,98.816238 599.387939,97.961700 599.880554,96.971352 
	C603.742859,89.206596 607.342529,81.311630 611.100952,73.494202 
	C611.570007,72.518669 612.494080,71.761940 614.135193,69.787598 
	C614.135193,85.119499 614.135193,98.994186 614.135193,112.674072 
	C621.391846,112.674072 628.132996,112.674072 634.677734,112.674072 
	C634.677734,85.279762 634.677734,58.212250 634.677734,31.000000 
	C629.703491,31.000000 624.987183,31.477846 620.413635,30.874121 
	C615.176270,30.182756 612.918152,32.556763 610.925232,36.906631 
	C605.336365,49.105194 599.360291,61.126328 592.819763,74.706528 
	C585.329712,59.273952 578.493103,45.187630 571.607300,31.000000 
	C567.183899,31.000000 562.857727,31.000000 557.553101,31.000000 
M712.282410,31.000000 
	C707.284729,31.000011 702.282104,30.878054 697.292419,31.077471 
	C695.872192,31.134226 694.075745,31.745445 693.154602,32.748047 
	C685.488953,41.091766 677.997375,49.595268 670.413330,58.014500 
	C669.960510,58.517197 669.164795,58.710960 667.830566,59.418861 
	C667.830566,49.503456 667.830566,40.296040 667.830566,31.341185 
	C660.575134,31.341185 653.833801,31.341185 647.331970,31.341185 
	C647.331970,58.747112 647.331970,85.811096 647.331970,112.667007 
	C654.408020,112.667007 661.148865,112.667007 668.000000,112.667007 
	C668.000000,107.013214 668.556946,101.619041 667.872559,96.387238 
	C666.782227,88.051918 671.826660,83.558830 677.242310,78.424026 
	C683.700256,89.040535 689.815430,99.209076 696.088440,109.279274 
	C697.009827,110.758369 698.628723,112.758514 700.013977,112.831734 
	C706.920532,113.196747 713.856812,112.998558 721.292969,112.998558 
	C720.525879,111.276176 720.156250,110.048981 719.490601,109.011696 
	C710.451172,94.925949 701.325500,80.895119 692.389221,66.744568 
	C691.697632,65.649445 691.605957,63.193737 692.349976,62.324966 
	C700.144470,53.223927 708.182312,44.331734 716.106445,35.340900 
	C717.150208,34.156624 717.934998,32.744061 719.142456,31.000000 
	C716.538635,31.000000 714.873047,31.000000 712.282410,31.000000 
M1016.106445,113.628883 
	C1024.770386,115.050766 1032.896851,113.581520 1039.264160,109.425636 
	C1041.414673,110.932915 1042.831055,112.742325 1044.373535,112.857132 
	C1049.452271,113.235153 1054.576782,112.999428 1059.633911,112.999428 
	C1059.633911,84.042580 1059.633911,55.550385 1059.633911,27.359247 
	C1052.527954,27.359247 1045.790161,27.359247 1038.717773,27.359247 
	C1038.717773,36.429035 1038.717773,45.139900 1038.717773,52.684269 
	C1032.220825,52.106411 1025.899292,50.571102 1019.804260,51.206772 
	C1007.515076,52.488472 999.563721,58.945831 995.988953,71.147057 
	C993.942932,78.130478 994.201355,85.078033 994.779541,92.320740 
	C995.669495,103.468018 1003.914001,112.718277 1016.106445,113.628883 
M495.399323,95.052605 
	C490.001770,93.856392 484.604218,92.660172 479.000031,91.418159 
	C479.000031,96.122192 479.285858,100.802963 478.906372,105.429169 
	C478.621033,108.907654 480.408447,110.290451 483.138794,110.947830 
	C494.970978,113.796608 506.924957,115.470772 519.026001,112.947792 
	C525.558655,111.585770 532.342285,109.556343 536.283081,103.986870 
	C545.547424,90.893967 541.745178,71.701378 524.511414,65.987167 
	C517.375000,63.620953 510.204559,61.306370 503.256500,58.462795 
	C501.721771,57.834698 500.217804,55.054996 500.242188,53.287361 
	C500.265869,51.575462 502.039795,48.694996 503.457611,48.414642 
	C508.051331,47.506302 512.889526,46.958733 517.531128,47.385845 
	C523.577393,47.942215 529.525513,49.564732 535.998840,50.822281 
	C535.998840,45.595131 536.161133,40.312660 535.863586,35.056206 
	C535.803101,33.987740 534.159668,32.374863 532.991821,32.102497 
	C522.814819,29.728973 512.535583,28.144939 502.066925,30.010859 
	C491.663269,31.865191 481.812286,34.461380 478.558746,47.922989 
	C477.054871,54.145340 477.476257,66.453018 485.572327,70.953514 
	C491.127197,74.041359 497.075165,76.444359 502.927979,78.966469 
	C507.181641,80.799454 511.778687,81.945618 515.791748,84.173973 
	C517.442932,85.090843 518.886902,88.119995 518.727356,90.047882 
	C518.580872,91.818954 516.302917,94.653587 514.703918,94.844810 
	C508.560669,95.579475 502.312897,95.440269 495.399323,95.052605 
M1104.356934,75.000000 
	C1099.029297,75.000008 1093.663818,74.598259 1088.383057,75.095879 
	C1080.799805,75.810471 1073.505371,77.840019 1070.535889,86.018738 
	C1066.220825,97.903580 1069.644775,109.490372 1082.310791,112.879425 
	C1091.985962,115.468185 1101.563110,114.477257 1110.452759,108.970566 
	C1111.119873,110.273811 1111.765747,111.535446 1112.393433,112.761566 
	C1118.498413,112.761566 1124.594116,112.761566 1131.000000,112.761566 
	C1131.000000,105.902718 1131.128784,99.274132 1130.966431,92.652695 
	C1130.776611,84.912338 1130.538086,77.162247 1129.936890,69.446259 
	C1129.427002,62.899197 1126.189575,57.900806 1120.083740,55.004017 
	C1106.263306,48.447025 1092.238403,50.431538 1078.208374,54.088383 
	C1077.342529,54.314060 1076.152954,55.520023 1076.112915,56.319885 
	C1075.902832,60.516808 1076.014648,64.729843 1076.014648,69.323303 
	C1080.673828,68.079338 1084.490112,66.628685 1088.427368,66.128197 
	C1092.523926,65.607445 1096.738892,65.924294 1100.898926,66.018524 
	C1107.385498,66.165466 1110.129883,68.904465 1109.713501,75.000000 
	C1108.264160,75.000000 1106.789185,75.000000 1104.356934,75.000000 
M940.752991,52.001915 
	C938.274170,52.671474 935.726929,53.166119 933.349609,54.095436 
	C932.379150,54.474819 931.168884,55.758995 931.112183,56.694824 
	C930.866516,60.746571 931.006958,64.821724 931.006958,67.901718 
	C939.983215,67.240265 948.397217,66.119179 956.803040,66.177147 
	C962.397644,66.215736 965.172424,68.750313 964.702332,75.000000 
	C958.420715,75.000000 952.104797,75.192825 945.804688,74.958702 
	C933.761658,74.511162 922.305847,81.434357 923.886658,96.939491 
	C924.607422,104.008011 928.030518,109.528412 934.791504,112.023308 
	C945.535950,115.988129 955.698425,114.203300 964.701111,109.447510 
	C966.378784,110.842445 967.617188,112.755440 968.982300,112.850647 
	C974.222839,113.216133 979.504028,112.998634 985.000000,112.998634 
	C985.000000,99.325279 984.876587,86.195107 985.037659,73.068420 
	C985.174988,61.871296 979.482239,55.935146 970.261841,52.954082 
	C960.772461,49.886086 951.235291,50.736855 940.752991,52.001915 
M840.782837,89.000000 
	C853.053345,89.000000 865.323792,89.000000 877.999207,89.000000 
	C877.999207,83.847328 878.442688,79.014587 877.891174,74.298210 
	C877.138367,67.860924 874.522644,62.166283 869.399658,57.742935 
	C860.336792,49.917797 849.645386,50.006744 838.918945,51.762207 
	C834.550659,52.477104 829.797852,54.452785 826.479797,57.315189 
	C815.361450,66.906891 814.158569,79.500816 817.462891,92.967918 
	C819.480896,101.192467 824.602478,106.539093 832.328796,110.143356 
	C844.787598,115.955315 857.397522,114.251488 870.052368,111.818436 
	C871.904297,111.462379 874.434448,109.260887 874.777222,107.540031 
	C875.505249,103.885910 874.999390,99.985939 874.999390,95.735901 
	C873.287048,96.091843 872.042603,96.313232 870.816772,96.611259 
	C861.608765,98.850060 852.388672,100.515892 843.115234,96.976730 
	C839.497253,95.595940 836.756836,93.386375 836.085083,89.000000 
	C837.544556,89.000000 838.704102,89.000000 840.782837,89.000000 
M797.000000,79.500000 
	C797.000000,68.737778 797.000000,57.975552 797.000000,46.825077 
	C805.308716,46.825077 813.053040,46.825077 820.710815,46.825077 
	C820.710815,41.350933 820.710815,36.279358 820.710815,31.285225 
	C797.686401,31.285225 774.952332,31.285225 752.287964,31.285225 
	C752.287964,36.648125 752.287964,41.720024 752.287964,47.180656 
	C760.314148,47.180656 768.058960,47.180656 776.179199,47.180656 
	C776.179199,69.313126 776.179199,91.049454 776.179199,112.711678 
	C783.314697,112.711678 790.053772,112.711678 797.000000,112.711678 
	C797.000000,101.783081 797.000000,91.141541 797.000000,79.500000 
M909.000000,67.500000 
	C909.000000,54.089134 909.000000,40.678265 909.000000,27.248573 
	C901.416077,27.248573 894.354309,27.248573 887.000977,27.248573 
	C887.000977,50.582664 886.763855,73.673698 887.178589,96.753006 
	C887.274475,102.089722 888.070374,108.266853 893.856384,111.275085 
	C901.485352,115.241432 909.474304,114.895134 917.426086,112.160507 
	C918.097473,111.929619 918.904541,110.870377 918.926453,110.173264 
	C919.063660,105.807259 918.995789,101.434799 918.995789,96.920280 
	C909.789795,99.008492 909.000061,98.356880 909.000000,89.457085 
	C909.000000,82.471390 909.000000,75.485695 909.000000,67.500000 
M824.000000,184.502380 
	C824.000000,181.002548 824.413025,177.441833 823.907898,174.016479 
	C823.045837,168.170609 826.735046,165.665192 831.040955,164.165253 
	C834.175598,163.073349 837.802917,162.984741 841.172485,163.164291 
	C842.692932,163.245300 844.683044,164.762131 845.452148,166.175812 
	C846.480713,168.066696 846.907349,170.485291 846.936157,172.685883 
	C847.077209,183.439133 847.000000,194.195236 847.000000,204.828430 
	C850.318970,204.828430 852.943237,204.828430 856.000000,204.828430 
	C856.000000,194.377274 856.563660,184.049576 855.789001,173.823303 
	C855.322937,167.671692 858.035522,164.849289 862.959229,163.731522 
	C866.488770,162.930252 870.529358,162.851807 874.014648,163.738068 
	C879.427063,165.114349 879.868103,170.203568 879.947144,174.791977 
	C880.118652,184.742249 880.000000,194.697525 880.000000,204.789154 
	C883.164734,204.789154 885.901184,204.789154 888.999207,204.789154 
	C888.999207,192.788528 889.384094,180.974884 888.770508,169.213348 
	C888.580322,165.568192 886.523743,161.145416 883.846558,158.681610 
	C877.690552,153.016342 869.871277,154.212250 862.569458,156.286957 
	C857.820251,157.636368 853.349426,162.248367 848.851562,156.021103 
	C848.791931,155.938599 848.521057,156.036728 848.366699,155.990540 
	C841.691833,153.993011 835.260620,154.707367 828.924622,157.489700 
	C827.231506,158.233215 823.727112,158.903778 823.675598,158.746979 
	C821.939758,153.461334 818.051514,157.039917 815.000000,155.991013 
	C815.000000,164.534866 815.000000,172.512421 815.000000,180.489975 
	C815.000000,188.594910 815.000000,196.699844 815.000000,204.715454 
	C818.306091,204.715454 821.045288,204.715454 824.000000,204.715454 
	C824.000000,198.122253 824.000000,191.811844 824.000000,184.502380 
M479.000000,157.500427 
	C479.000000,173.255157 479.000000,189.009903 479.000000,204.732590 
	C482.610718,204.732590 485.681488,204.732590 489.000000,204.732590 
	C489.000000,200.498398 489.507080,196.449295 488.898682,192.575363 
	C487.453552,183.373657 492.199768,177.449142 498.883209,171.963837 
	C503.960968,180.079788 509.106018,188.042953 513.982971,196.167023 
	C519.502014,205.360641 520.991943,206.245697 530.090088,204.263184 
	C522.281372,192.213242 514.548645,180.214676 506.723846,168.276474 
	C505.548401,166.483109 505.070343,165.315247 506.909790,163.471024 
	C512.388855,157.977600 517.660767,152.272720 522.895508,146.542603 
	C525.136292,144.089752 527.085022,141.370178 529.166504,138.771805 
	C529.006836,138.380753 528.847168,137.989700 528.687500,137.598648 
	C524.930420,138.090225 519.981567,137.244522 517.643433,139.328278 
	C511.064209,145.191696 505.615601,152.312469 499.607117,158.832336 
	C496.555206,162.143982 493.257721,165.229294 490.071259,168.416916 
	C489.691315,168.197418 489.311371,167.977921 488.931427,167.758423 
	C488.931427,157.896744 488.931427,148.035049 488.931427,138.291855 
	C485.341156,138.291855 482.267853,138.291855 479.000000,138.291855 
	C479.000000,144.555008 479.000000,150.527817 479.000000,157.500427 
M670.994995,176.000931 
	C668.372253,177.118729 665.363037,177.747025 663.203796,179.451874 
	C658.015869,183.548065 656.627625,190.527237 659.055969,197.158279 
	C660.784912,201.879166 666.993713,206.235001 673.049072,205.880096 
	C679.869629,205.480316 686.636169,204.159103 693.671997,203.205353 
	C695.095581,207.530380 699.423889,203.971924 702.000122,204.870300 
	C702.000122,192.826935 702.132751,180.979202 701.951050,169.136292 
	C701.839600,161.870712 697.922913,157.626892 690.759583,155.982513 
	C681.653625,153.892181 672.787659,154.853424 664.165039,157.461380 
	C664.165039,160.426147 664.165039,163.039505 664.165039,164.993378 
	C670.038391,164.322311 675.812439,163.281342 681.614929,163.086288 
	C691.040771,162.769424 693.707336,165.755295 693.796631,176.000046 
	C686.502258,176.000046 679.204407,176.000046 670.994995,176.000931 
M907.947388,204.981613 
	C916.773743,207.018173 925.329224,206.679550 933.364258,201.778931 
	C933.276550,202.351624 933.188843,202.924332 933.101196,203.497025 
	C936.208801,204.156601 939.316406,204.816162 942.999084,205.597778 
	C942.999084,193.833679 943.391541,183.026611 942.893494,172.260742 
	C942.347656,160.463058 935.955444,154.827209 923.973450,155.072571 
	C917.366760,155.207901 910.775269,156.081268 904.225586,156.617905 
	C904.225586,160.209198 904.225586,162.912613 904.225586,165.618881 
	C907.259338,164.896820 910.047424,164.016541 912.902893,163.612335 
	C915.984619,163.176132 919.127075,163.115814 922.247009,163.013718 
	C929.943726,162.761765 934.344238,165.601044 933.678528,175.661697 
	C933.371521,175.766525 933.064819,175.961563 932.757385,175.962845 
	C926.596313,175.988617 920.435242,175.994781 914.274109,175.999374 
	C905.048950,176.006241 900.644836,179.390411 898.297058,188.283707 
	C896.726379,194.233261 900.494629,201.203094 907.947388,204.981613 
M446.000000,84.500000 
	C446.000000,63.075871 446.000000,41.651745 446.000000,20.249582 
	C443.750214,20.249582 442.014557,20.249582 440.337769,20.249582 
	C440.337769,90.309242 440.337769,160.119308 440.337769,229.848282 
	C442.303741,229.848282 443.930847,229.848282 446.000000,229.848282 
	C446.000000,181.632278 446.000000,133.566147 446.000000,84.500000 
M1008.072388,165.377762 
	C1014.015564,164.585175 1019.947998,163.251373 1025.904663,163.132172 
	C1033.988159,162.970413 1038.496094,165.937698 1036.438232,176.000031 
	C1029.369385,176.000031 1022.226074,175.716446 1015.117676,176.092499 
	C1009.725220,176.377777 1004.867554,178.794815 1003.145569,184.219604 
	C1001.385193,189.765366 1000.171204,195.655991 1005.151917,200.680191 
	C1012.272949,207.863510 1026.672974,208.254715 1036.114624,201.404266 
	C1036.464111,201.150681 1037.018188,201.179108 1037.566162,201.056061 
	C1037.902588,202.462616 1038.212891,203.760406 1038.452026,204.759979 
	C1041.177124,204.759979 1043.449097,204.759979 1045.999268,204.759979 
	C1045.999268,192.742767 1046.382080,180.945312 1045.837646,169.190826 
	C1045.565796,163.323975 1042.459839,157.995468 1036.114624,156.764282 
	C1029.919678,155.562286 1023.216858,154.149323 1017.229431,155.328796 
	C1006.628601,157.417068 1006.363098,155.004868 1008.072388,165.377762 
M542.588013,157.907211 
	C540.680908,159.806381 538.531616,161.520218 536.910706,163.638351 
	C531.310730,170.955933 532.443359,179.679047 533.247253,187.800644 
	C534.148071,196.900635 540.757019,203.596542 549.601624,205.135330 
	C558.299561,206.648560 566.620422,206.359268 574.705750,203.514694 
	C574.705750,200.902695 574.705750,198.491699 574.705750,196.731247 
	C567.957764,197.165680 561.456848,198.115265 555.004883,197.853989 
	C548.208374,197.578781 542.795654,194.834412 542.363464,184.922485 
	C554.127014,184.922485 565.879822,184.922485 578.777771,184.922485 
	C577.801331,178.406448 577.671204,172.108566 575.714905,166.441116 
	C574.463379,162.815613 571.097412,158.900757 567.656311,157.256271 
	C559.772156,153.488449 551.300903,154.003784 542.588013,157.907211 
M795.439453,185.000000 
	C797.877258,185.000000 800.315002,185.000000 803.338989,185.000000 
	C802.961731,178.895432 803.751038,172.969055 802.043457,167.880554 
	C798.343140,156.853394 787.208313,152.105515 775.244812,155.288422 
	C770.338379,156.593765 765.865479,158.395172 762.939880,163.078705 
	C757.504578,171.779755 757.271484,180.834976 759.802246,190.468857 
	C760.954407,194.854919 762.785095,198.425446 766.445923,201.080841 
	C777.139221,208.837326 788.488647,206.377380 799.675171,203.867722 
	C799.675171,200.881683 799.675171,198.486725 799.675171,197.057144 
	C792.898193,197.379608 786.382446,198.140427 779.908142,197.877625 
	C772.665466,197.583649 767.791504,191.703033 768.521912,185.000000 
	C777.149048,185.000000 785.802490,185.000000 795.439453,185.000000 
M959.476196,180.983322 
	C962.684265,188.141602 965.926147,195.285172 969.054810,202.477982 
	C969.419006,203.315216 969.462830,204.542038 969.138123,205.390366 
	C965.689453,214.402405 961.627258,216.518600 952.349365,214.287781 
	C951.434509,222.961411 951.486938,222.641327 959.836182,223.099197 
	C968.448486,223.571487 973.183533,218.727585 976.456482,211.960678 
	C982.106689,200.278397 987.440857,188.440140 992.736877,176.591019 
	C995.705872,169.948303 998.331909,163.152359 1001.288452,156.000000 
	C999.340271,156.000000 998.007568,156.119400 996.703308,155.977417 
	C992.914185,155.564880 991.024719,156.568329 989.426453,160.749893 
	C985.344910,171.428391 980.141907,181.678284 975.251099,192.398758 
	C974.420593,191.732941 973.687134,191.439651 973.471252,190.927994 
	C969.927063,182.528671 966.323547,174.150833 962.987183,165.668335 
	C959.102295,155.791641 959.209229,155.746094 949.999512,156.049713 
	C949.723877,156.058792 949.456421,156.315933 948.884399,156.614273 
	C952.262817,164.510056 955.647705,172.420944 959.476196,180.983322 
M746.964966,164.142685 
	C746.974243,162.311234 747.256531,160.422287 746.887512,158.670517 
	C746.676697,157.669754 745.424683,156.151657 744.608154,156.130127 
	C737.146606,155.933456 729.642212,155.573807 722.223694,156.171860 
	C717.410034,156.559921 713.056641,162.107193 713.098450,167.107620 
	C713.145996,172.800491 714.262390,177.912369 719.756042,179.976562 
	C725.138123,181.998871 730.551208,183.941635 735.902222,186.042816 
	C738.655212,187.123856 741.111267,188.273804 741.117920,192.177658 
	C741.125000,196.358185 738.050049,196.724380 735.480286,197.750580 
	C734.317261,198.214966 732.844604,198.094116 731.536987,197.973358 
	C725.788574,197.442612 720.049011,196.814941 714.192261,196.210648 
	C714.192261,198.901810 714.192261,201.344086 714.192261,204.750839 
	C721.474426,205.172852 728.608337,205.869263 735.747375,205.926743 
	C744.240723,205.995117 749.990479,200.756317 750.985168,192.741409 
	C751.720154,186.819092 747.267273,181.136612 740.083496,178.517776 
	C735.428772,176.820892 730.745483,175.109543 726.334106,172.889679 
	C724.818848,172.127167 723.177063,169.752045 723.263733,168.207397 
	C723.346375,166.733246 725.342712,164.762131 726.950928,164.083649 
	C733.518250,161.313034 740.034729,163.656479 746.964966,164.142685 
M639.654785,155.999695 
	C638.769958,155.051498 637.197449,154.154953 637.121582,153.145966 
	C636.824646,149.193634 637.000244,145.205780 637.000244,141.579239 
	C626.089783,140.970901 626.025085,148.114807 627.232910,156.052277 
	C624.487732,156.052277 622.410278,156.052277 620.205566,156.052277 
	C620.205566,158.499725 620.205566,160.571838 620.205566,163.015869 
	C622.467896,163.015869 624.548950,163.015869 627.000000,163.015869 
	C627.000000,171.996429 626.580933,180.633575 627.108582,189.212509 
	C627.735840,199.412048 629.804504,206.733810 643.204285,206.075806 
	C651.534424,205.666748 651.730347,205.786621 650.672729,197.999954 
	C648.143555,197.999954 645.693481,197.830429 643.275696,198.037766 
	C639.143311,198.392136 637.263184,195.625458 637.144409,192.507553 
	C636.773560,182.768509 637.008240,173.006409 637.008240,162.879608 
	C641.599609,162.879608 645.686035,162.879608 649.753784,162.879608 
	C649.753784,160.422562 649.753784,158.353668 649.753784,156.000000 
	C646.549500,156.000000 643.583252,156.000000 639.654785,155.999695 
M589.686523,204.938263 
	C592.312378,204.938263 594.938293,204.938263 598.000000,204.938263 
	C598.000000,196.718536 598.000000,188.768539 598.000000,180.818527 
	C598.000000,168.025803 598.000000,168.025803 610.506226,164.000031 
	C616.781006,161.980148 616.855835,161.841934 615.210083,154.480331 
	C609.513977,156.595947 603.893799,158.683365 598.264648,160.774094 
	C598.046997,159.121521 597.844116,157.580811 597.660400,156.185791 
	C594.627502,156.185791 592.011719,156.185791 589.050720,156.185791 
	C589.050720,172.319168 589.050720,188.269821 589.686523,204.938263 
z"/>
<path fill="#FFFFFF" opacity="1.000000" stroke="none" 
	d="
M213.454102,249.000000 
	C212.257339,248.113342 211.685257,246.933670 210.745056,246.386292 
	C203.135590,241.956131 194.778946,238.494034 187.982147,233.068161 
	C180.558746,227.142090 176.634033,218.138687 175.133987,208.787430 
	C172.801254,194.245132 174.098953,179.601730 174.830582,164.930634 
	C176.266449,136.138245 168.209183,114.829559 140.261536,98.594604 
	C140.147659,98.528465 140.120346,98.313339 139.646759,97.295906 
	C144.152756,96.173004 148.453705,94.552353 152.875107,94.094391 
	C172.008759,92.112564 187.193420,98.655678 198.079193,115.042648 
	C207.467743,129.175766 211.454117,145.126785 214.953110,161.305038 
	C216.129669,166.745087 216.767700,172.301636 218.705338,177.734467 
	C220.131592,170.401367 221.503845,163.057266 222.995544,155.737503 
	C225.961136,141.185272 230.339813,127.123100 238.792877,114.725441 
	C247.104065,102.535873 258.041931,94.153114 273.469788,94.118469 
	C281.185608,94.101143 288.904205,95.325470 296.621552,95.988205 
	C296.664764,96.471237 296.707977,96.954262 296.751190,97.437294 
	C292.530548,100.762810 288.401978,104.213928 284.070984,107.388931 
	C273.545166,115.105263 267.339386,125.812561 264.181641,138.037384 
	C261.043030,150.188156 262.049988,162.666580 262.709473,175.197388 
	C263.536926,190.918274 264.889648,206.988327 257.080078,221.901672 
	C252.563965,230.525803 245.551987,236.293030 237.369705,240.887665 
	C232.515991,243.613174 227.407394,245.884796 222.706696,248.680252 
	C219.969406,249.000000 216.938812,249.000000 213.454102,249.000000 
z"/>
<path fill="#FFFFFF" opacity="1.000000" stroke="none" 
	d="
M1.000001,206.375000 
	C3.183528,203.986511 5.645348,202.200195 7.504886,199.922241 
	C18.622696,186.302750 29.621502,172.585846 40.621994,158.870926 
	C52.531086,144.023239 64.394714,129.139114 76.288071,114.278786 
	C77.920082,112.239632 79.663063,110.287773 81.258690,108.221390 
	C83.455376,105.376602 85.936264,104.794479 89.762985,104.724358 
	C99.683952,104.542564 109.696968,103.614731 119.444656,101.774132 
	C125.950539,100.545662 129.902603,104.730453 134.963364,106.549751 
	C136.719772,107.181168 138.202209,108.574661 140.664551,110.175949 
	C126.884277,127.246437 113.089272,144.335190 98.869110,161.950592 
	C121.190628,161.950592 142.906830,161.950592 163.998047,161.950592 
	C163.998047,177.755325 163.998047,193.178040 163.998047,209.000000 
	C110.533798,209.000000 56.235558,209.000000 1.468657,209.000000 
	C1.000000,208.250000 1.000000,207.500000 1.000001,206.375000 
z"/>
<path fill="#FFFFFF" opacity="1.000000" stroke="none" 
	d="
M1205.000000,112.531342 
	C1198.195801,113.000000 1191.391602,113.000000 1184.000000,113.000000 
	C1184.000000,100.391983 1184.011475,87.979187 1183.984619,75.566467 
	C1183.981445,74.102249 1184.153931,72.460564 1183.577515,71.208527 
	C1181.964233,67.705200 1176.138184,65.931854 1171.400269,67.218246 
	C1165.238037,68.891365 1163.009277,71.237686 1163.004150,76.147247 
	C1162.991333,88.265503 1163.000000,100.383774 1163.000000,112.749939 
	C1155.978516,112.749939 1149.246216,112.749939 1142.255493,112.749939 
	C1142.255493,92.667122 1142.255493,72.614281 1142.255493,52.280216 
	C1148.636597,52.280216 1155.046143,52.280216 1161.772095,52.280216 
	C1161.921143,53.386856 1162.085938,54.610588 1162.239258,55.750046 
	C1177.575806,50.749195 1192.943726,44.480160 1204.691284,62.291641 
	C1205.000000,78.687561 1205.000000,95.375122 1205.000000,112.531342 
z"/>
<path fill="#FFFFFF" opacity="1.000000" stroke="none" 
	d="
M227.531342,1.000001 
	C225.673019,4.262228 223.485229,7.635234 220.993286,10.766173 
	C213.086823,20.699989 205.072006,30.547634 197.078812,40.412167 
	C196.569855,41.040295 195.888321,41.528587 195.447968,40.602592 
	C186.387085,38.735065 177.394501,35.928280 168.246185,35.263046 
	C159.019653,34.592125 149.638565,36.046829 139.507233,36.616211 
	C149.021576,24.738350 158.298203,13.157255 167.287415,1.288080 
	C168.066666,1.000000 169.133347,1.000000 170.308197,1.321586 
	C173.004883,2.762143 175.609848,4.853772 178.178711,4.810314 
	C184.809296,4.698144 191.427643,3.673844 198.035507,2.884965 
	C198.426453,2.838294 198.681641,1.654595 199.000000,1.000003 
	C208.354233,1.000000 217.708450,1.000000 227.531342,1.000001 
z"/>
<path fill="#000000" opacity="1.000000" stroke="none" 
	d="
M198.531342,1.000003 
	C198.681641,1.654595 198.426453,2.838294 198.035507,2.884965 
	C191.427643,3.673844 184.809296,4.698144 178.178711,4.810314 
	C175.609848,4.853772 173.004883,2.762143 170.708191,1.321586 
	C180.020889,1.000000 189.041794,1.000000 198.531342,1.000003 
z"/>
<path fill="#FFFFFF" opacity="1.000000" stroke="none" 
	d="
M145.939514,45.999996 
	C157.009506,46.217201 167.842285,45.130653 178.167130,46.941013 
	C196.017441,50.070885 206.565308,62.512257 212.442856,79.028030 
	C214.699417,85.368919 216.102386,92.013573 218.064651,99.138290 
	C218.672775,98.235168 219.765839,97.319237 219.930695,96.258972 
	C221.839966,83.980476 225.908386,72.741615 233.587585,62.689823 
	C240.930099,53.078716 250.648819,48.071758 262.096436,46.066597 
	C276.176788,43.600288 290.077148,46.147079 304.091187,47.776752 
	C320.074310,49.635406 336.307922,51.452553 352.294647,50.624023 
	C371.607758,49.623108 389.708557,42.742668 405.745117,31.550816 
	C409.318481,29.056990 411.934448,25.191311 414.991211,21.957273 
	C415.425659,22.125595 415.860107,22.293917 416.294525,22.462236 
	C415.833374,27.394974 416.035980,32.503288 414.786407,37.227482 
	C411.058899,51.319973 404.790710,64.306198 393.993225,74.348099 
	C382.424408,85.107430 368.631317,91.555664 352.838776,94.103714 
	C334.183472,97.113686 316.817200,91.267418 299.086060,87.562080 
	C285.729980,84.771027 272.406219,81.959465 258.832672,86.924652 
	C249.465591,90.351135 242.245804,96.445938 236.043152,103.914673 
	C230.541489,110.539345 225.355347,117.425819 219.880539,124.073700 
	C219.557266,124.466232 217.490341,124.133675 216.927826,123.511726 
	C208.443451,114.130905 200.229889,104.501411 191.626038,95.233620 
	C185.803162,88.961418 178.077271,86.374580 169.737976,84.924149 
	C155.961792,82.528099 143.093979,86.756813 129.966080,89.493736 
	C117.406532,92.112160 104.957474,95.563637 91.914345,95.018494 
	C76.114693,94.358139 61.981983,89.028168 49.326584,79.770996 
	C33.476295,68.176826 25.340836,51.756397 21.107635,33.121250 
	C20.232639,29.269382 20.338814,25.194628 20.467173,20.958248 
	C27.682825,30.075920 36.945297,36.060364 47.202209,40.638062 
	C66.003845,49.029305 85.761063,52.536770 106.224495,50.883125 
	C119.353363,49.822182 132.393692,47.665508 145.939514,45.999996 
z"/>
<path fill="#FFFFFF" opacity="1.000000" stroke="none" 
	d="
M380.979797,95.002365 
	C383.318787,93.929214 385.275635,92.890671 388.640564,91.104820 
	C383.091644,100.603714 378.396332,108.845566 373.506317,116.970177 
	C363.059631,134.326904 352.455688,151.589066 342.024933,168.955307 
	C334.579651,181.350983 327.357147,193.880554 319.892578,206.264404 
	C319.157654,207.483658 317.432770,208.863922 316.151184,208.880051 
	C301.536285,209.063797 286.918213,208.996841 272.044067,208.996841 
	C272.057709,198.577225 273.879578,189.439362 279.548950,180.678757 
	C290.722900,163.412247 300.939117,145.526505 311.576660,127.912086 
	C315.732513,121.030586 320.230652,114.337616 324.030914,107.267464 
	C325.871246,103.843628 328.385956,103.557320 331.332916,104.046242 
	C348.855408,106.953362 365.162994,103.434448 380.979797,95.002365 
z"/>
<path fill="#FFFFFF" opacity="1.000000" stroke="none" 
	d="
M558.042358,31.000000 
	C562.857727,31.000000 567.183899,31.000000 571.607300,31.000000 
	C578.493103,45.187630 585.329712,59.273952 592.819763,74.706528 
	C599.360291,61.126328 605.336365,49.105194 610.925232,36.906631 
	C612.918152,32.556763 615.176270,30.182756 620.413635,30.874121 
	C624.987183,31.477846 629.703491,31.000000 634.677734,31.000000 
	C634.677734,58.212250 634.677734,85.279762 634.677734,112.674072 
	C628.132996,112.674072 621.391846,112.674072 614.135193,112.674072 
	C614.135193,98.994186 614.135193,85.119499 614.135193,69.787598 
	C612.494080,71.761940 611.570007,72.518669 611.100952,73.494202 
	C607.342529,81.311630 603.742859,89.206596 599.880554,96.971352 
	C599.387939,97.961700 597.704407,98.816238 596.500366,98.923691 
	C587.174500,99.755844 587.152832,99.702164 583.089478,91.491745 
	C579.849915,84.945862 576.655884,78.377426 572.324097,72.070221 
	C572.324097,85.537109 572.324097,99.003998 572.324097,112.731804 
	C564.676880,112.731804 557.605774,112.731804 550.265869,112.731804 
	C550.265869,85.673378 550.265869,58.606606 550.265869,31.000000 
	C552.680176,31.000000 555.116638,31.000000 558.042358,31.000000 
z"/>
<path fill="#FFFFFF" opacity="1.000000" stroke="none" 
	d="
M712.744873,31.000000 
	C714.873047,31.000000 716.538635,31.000000 719.142456,31.000000 
	C717.934998,32.744061 717.150208,34.156624 716.106445,35.340900 
	C708.182312,44.331734 700.144470,53.223927 692.349976,62.324966 
	C691.605957,63.193737 691.697632,65.649445 692.389221,66.744568 
	C701.325500,80.895119 710.451172,94.925949 719.490601,109.011696 
	C720.156250,110.048981 720.525879,111.276176 721.292969,112.998558 
	C713.856812,112.998558 706.920532,113.196747 700.013977,112.831734 
	C698.628723,112.758514 697.009827,110.758369 696.088440,109.279274 
	C689.815430,99.209076 683.700256,89.040535 677.242310,78.424026 
	C671.826660,83.558830 666.782227,88.051918 667.872559,96.387238 
	C668.556946,101.619041 668.000000,107.013214 668.000000,112.667007 
	C661.148865,112.667007 654.408020,112.667007 647.331970,112.667007 
	C647.331970,85.811096 647.331970,58.747112 647.331970,31.341185 
	C653.833801,31.341185 660.575134,31.341185 667.830566,31.341185 
	C667.830566,40.296040 667.830566,49.503456 667.830566,59.418861 
	C669.164795,58.710960 669.960510,58.517197 670.413330,58.014500 
	C677.997375,49.595268 685.488953,41.091766 693.154602,32.748047 
	C694.075745,31.745445 695.872192,31.134226 697.292419,31.077471 
	C702.282104,30.878054 707.284729,31.000011 712.744873,31.000000 
z"/>
<path fill="#FFFFFF" opacity="1.000000" stroke="none" 
	d="
M1015.762207,113.341179 
	C1003.914001,112.718277 995.669495,103.468018 994.779541,92.320740 
	C994.201355,85.078033 993.942932,78.130478 995.988953,71.147057 
	C999.563721,58.945831 1007.515076,52.488472 1019.804260,51.206772 
	C1025.899292,50.571102 1032.220825,52.106411 1038.717773,52.684269 
	C1038.717773,45.139900 1038.717773,36.429035 1038.717773,27.359247 
	C1045.790161,27.359247 1052.527954,27.359247 1059.633911,27.359247 
	C1059.633911,55.550385 1059.633911,84.042580 1059.633911,112.999428 
	C1054.576782,112.999428 1049.452271,113.235153 1044.373535,112.857132 
	C1042.831055,112.742325 1041.414673,110.932915 1039.264160,109.425636 
	C1032.896851,113.581520 1024.770386,115.050766 1015.762207,113.341179 
M1034.351562,67.861824 
	C1025.673706,65.178894 1019.719421,67.466827 1017.364258,75.577888 
	C1015.991943,80.304321 1016.119446,85.599419 1016.316833,90.609329 
	C1016.498169,95.212959 1020.542786,97.196960 1024.278442,97.822174 
	C1029.265381,98.656853 1034.470459,98.176086 1038.270264,94.042061 
	C1038.994019,93.254677 1038.951538,91.608719 1038.969971,90.354568 
	C1039.042969,85.371529 1038.720947,80.365791 1039.093994,75.409775 
	C1039.360718,71.868919 1038.373413,69.493057 1034.351562,67.861824 
z"/>
<path fill="#FFFFFF" opacity="1.000000" stroke="none" 
	d="
M495.751709,95.339813 
	C502.312897,95.440269 508.560669,95.579475 514.703918,94.844810 
	C516.302917,94.653587 518.580872,91.818954 518.727356,90.047882 
	C518.886902,88.119995 517.442932,85.090843 515.791748,84.173973 
	C511.778687,81.945618 507.181641,80.799454 502.927979,78.966469 
	C497.075165,76.444359 491.127197,74.041359 485.572327,70.953514 
	C477.476257,66.453018 477.054871,54.145340 478.558746,47.922989 
	C481.812286,34.461380 491.663269,31.865191 502.066925,30.010859 
	C512.535583,28.144939 522.814819,29.728973 532.991821,32.102497 
	C534.159668,32.374863 535.803101,33.987740 535.863586,35.056206 
	C536.161133,40.312660 535.998840,45.595131 535.998840,50.822281 
	C529.525513,49.564732 523.577393,47.942215 517.531128,47.385845 
	C512.889526,46.958733 508.051331,47.506302 503.457611,48.414642 
	C502.039795,48.694996 500.265869,51.575462 500.242188,53.287361 
	C500.217804,55.054996 501.721771,57.834698 503.256500,58.462795 
	C510.204559,61.306370 517.375000,63.620953 524.511414,65.987167 
	C541.745178,71.701378 545.547424,90.893967 536.283081,103.986870 
	C532.342285,109.556343 525.558655,111.585770 519.026001,112.947792 
	C506.924957,115.470772 494.970978,113.796608 483.138794,110.947830 
	C480.408447,110.290451 478.621033,108.907654 478.906372,105.429169 
	C479.285858,100.802963 479.000031,96.122192 479.000031,91.418159 
	C484.604218,92.660172 490.001770,93.856392 495.751709,95.339813 
z"/>
<path fill="#FFFFFF" opacity="1.000000" stroke="none" 
	d="
M1104.835571,75.000000 
	C1106.789185,75.000000 1108.264160,75.000000 1109.713501,75.000000 
	C1110.129883,68.904465 1107.385498,66.165466 1100.898926,66.018524 
	C1096.738892,65.924294 1092.523926,65.607445 1088.427368,66.128197 
	C1084.490112,66.628685 1080.673828,68.079338 1076.014648,69.323303 
	C1076.014648,64.729843 1075.902832,60.516808 1076.112915,56.319885 
	C1076.152954,55.520023 1077.342529,54.314060 1078.208374,54.088383 
	C1092.238403,50.431538 1106.263306,48.447025 1120.083740,55.004017 
	C1126.189575,57.900806 1129.427002,62.899197 1129.936890,69.446259 
	C1130.538086,77.162247 1130.776611,84.912338 1130.966431,92.652695 
	C1131.128784,99.274132 1131.000000,105.902718 1131.000000,112.761566 
	C1124.594116,112.761566 1118.498413,112.761566 1112.393433,112.761566 
	C1111.765747,111.535446 1111.119873,110.273811 1110.452759,108.970566 
	C1101.563110,114.477257 1091.985962,115.468185 1082.310791,112.879425 
	C1069.644775,109.490372 1066.220825,97.903580 1070.535889,86.018738 
	C1073.505371,77.840019 1080.799805,75.810471 1088.383057,75.095879 
	C1093.663818,74.598259 1099.029297,75.000008 1104.835571,75.000000 
M1088.387207,92.085350 
	C1089.314453,94.407494 1089.621094,98.001953 1091.285034,98.813538 
	C1096.300415,101.259842 1101.696655,100.648468 1106.616577,97.744072 
	C1110.843994,95.248466 1110.193237,91.275192 1109.792480,87.000877 
	C1105.488892,87.000877 1101.300049,86.557350 1097.261353,87.145874 
	C1094.212891,87.590103 1090.110229,87.063690 1088.387207,92.085350 
z"/>
<path fill="#FFFFFF" opacity="1.000000" stroke="none" 
	d="
M941.199097,52.001007 
	C951.235291,50.736855 960.772461,49.886086 970.261841,52.954082 
	C979.482239,55.935146 985.174988,61.871296 985.037659,73.068420 
	C984.876587,86.195107 985.000000,99.325279 985.000000,112.998634 
	C979.504028,112.998634 974.222839,113.216133 968.982300,112.850647 
	C967.617188,112.755440 966.378784,110.842445 964.701111,109.447510 
	C955.698425,114.203300 945.535950,115.988129 934.791504,112.023308 
	C928.030518,109.528412 924.607422,104.008011 923.886658,96.939491 
	C922.305847,81.434357 933.761658,74.511162 945.804688,74.958702 
	C952.104797,75.192825 958.420715,75.000000 964.702332,75.000000 
	C965.172424,68.750313 962.397644,66.215736 956.803040,66.177147 
	C948.397217,66.119179 939.983215,67.240265 931.006958,67.901718 
	C931.006958,64.821724 930.866516,60.746571 931.112183,56.694824 
	C931.168884,55.758995 932.379150,54.474819 933.349609,54.095436 
	C935.726929,53.166119 938.274170,52.671474 941.199097,52.001007 
M961.341125,87.000008 
	C956.786133,87.334839 952.134827,87.235046 947.722168,88.212517 
	C945.886353,88.619186 943.695618,91.127098 943.261047,93.041573 
	C942.880249,94.718895 944.201904,97.608620 945.696411,98.729324 
	C950.001221,101.957390 960.819153,99.719032 964.062378,95.401657 
	C966.166077,92.601234 965.162231,87.840408 961.341125,87.000008 
z"/>
<path fill="#FFFFFF" opacity="1.000000" stroke="none" 
	d="
M840.323242,89.000000 
	C838.704102,89.000000 837.544556,89.000000 836.085083,89.000000 
	C836.756836,93.386375 839.497253,95.595940 843.115234,96.976730 
	C852.388672,100.515892 861.608765,98.850060 870.816772,96.611259 
	C872.042603,96.313232 873.287048,96.091843 874.999390,95.735901 
	C874.999390,99.985939 875.505249,103.885910 874.777222,107.540031 
	C874.434448,109.260887 871.904297,111.462379 870.052368,111.818436 
	C857.397522,114.251488 844.787598,115.955315 832.328796,110.143356 
	C824.602478,106.539093 819.480896,101.192467 817.462891,92.967918 
	C814.158569,79.500816 815.361450,66.906891 826.479797,57.315189 
	C829.797852,54.452785 834.550659,52.477104 838.918945,51.762207 
	C849.645386,50.006744 860.336792,49.917797 869.399658,57.742935 
	C874.522644,62.166283 877.138367,67.860924 877.891174,74.298210 
	C878.442688,79.014587 877.999207,83.847328 877.999207,89.000000 
	C865.323792,89.000000 853.053345,89.000000 840.323242,89.000000 
M839.043091,68.434464 
	C837.751160,70.990616 836.459167,73.546761 834.873291,76.684425 
	C843.861511,76.684425 851.396790,76.684425 858.834534,76.684425 
	C859.585876,71.842537 858.416748,67.361183 853.817200,66.624893 
	C849.278442,65.898331 844.385315,67.385231 839.043091,68.434464 
z"/>
<path fill="#FFFFFF" opacity="1.000000" stroke="none" 
	d="
M797.000000,80.000000 
	C797.000000,91.141541 797.000000,101.783081 797.000000,112.711678 
	C790.053772,112.711678 783.314697,112.711678 776.179199,112.711678 
	C776.179199,91.049454 776.179199,69.313126 776.179199,47.180656 
	C768.058960,47.180656 760.314148,47.180656 752.287964,47.180656 
	C752.287964,41.720024 752.287964,36.648125 752.287964,31.285225 
	C774.952332,31.285225 797.686401,31.285225 820.710815,31.285225 
	C820.710815,36.279358 820.710815,41.350933 820.710815,46.825077 
	C813.053040,46.825077 805.308716,46.825077 797.000000,46.825077 
	C797.000000,57.975552 797.000000,68.737778 797.000000,80.000000 
z"/>
<path fill="#FFFFFF" opacity="1.000000" stroke="none" 
	d="
M909.000000,68.000000 
	C909.000000,75.485695 909.000000,82.471390 909.000000,89.457085 
	C909.000061,98.356880 909.789795,99.008492 918.995789,96.920280 
	C918.995789,101.434799 919.063660,105.807259 918.926453,110.173264 
	C918.904541,110.870377 918.097473,111.929619 917.426086,112.160507 
	C909.474304,114.895134 901.485352,115.241432 893.856384,111.275085 
	C888.070374,108.266853 887.274475,102.089722 887.178589,96.753006 
	C886.763855,73.673698 887.000977,50.582664 887.000977,27.248573 
	C894.354309,27.248573 901.416077,27.248573 909.000000,27.248573 
	C909.000000,40.678265 909.000000,54.089134 909.000000,68.000000 
z"/>
<path fill="#FFFFFF" opacity="1.000000" stroke="none" 
	d="
M824.000000,185.001907 
	C824.000000,191.811844 824.000000,198.122253 824.000000,204.715454 
	C821.045288,204.715454 818.306091,204.715454 815.000000,204.715454 
	C815.000000,196.699844 815.000000,188.594910 815.000000,180.489975 
	C815.000000,172.512421 815.000000,164.534866 815.000000,155.991013 
	C818.051514,157.039917 821.939758,153.461334 823.675598,158.746979 
	C823.727112,158.903778 827.231506,158.233215 828.924622,157.489700 
	C835.260620,154.707367 841.691833,153.993011 848.366699,155.990540 
	C848.521057,156.036728 848.791931,155.938599 848.851562,156.021103 
	C853.349426,162.248367 857.820251,157.636368 862.569458,156.286957 
	C869.871277,154.212250 877.690552,153.016342 883.846558,158.681610 
	C886.523743,161.145416 888.580322,165.568192 888.770508,169.213348 
	C889.384094,180.974884 888.999207,192.788528 888.999207,204.789154 
	C885.901184,204.789154 883.164734,204.789154 880.000000,204.789154 
	C880.000000,194.697525 880.118652,184.742249 879.947144,174.791977 
	C879.868103,170.203568 879.427063,165.114349 874.014648,163.738068 
	C870.529358,162.851807 866.488770,162.930252 862.959229,163.731522 
	C858.035522,164.849289 855.322937,167.671692 855.789001,173.823303 
	C856.563660,184.049576 856.000000,194.377274 856.000000,204.828430 
	C852.943237,204.828430 850.318970,204.828430 847.000000,204.828430 
	C847.000000,194.195236 847.077209,183.439133 846.936157,172.685883 
	C846.907349,170.485291 846.480713,168.066696 845.452148,166.175812 
	C844.683044,164.762131 842.692932,163.245300 841.172485,163.164291 
	C837.802917,162.984741 834.175598,163.073349 831.040955,164.165253 
	C826.735046,165.665192 823.045837,168.170609 823.907898,174.016479 
	C824.413025,177.441833 824.000000,181.002548 824.000000,185.001907 
z"/>
<path fill="#FFFFFF" opacity="1.000000" stroke="none" 
	d="
M479.000000,157.000534 
	C479.000000,150.527817 479.000000,144.555008 479.000000,138.291855 
	C482.267853,138.291855 485.341156,138.291855 488.931427,138.291855 
	C488.931427,148.035049 488.931427,157.896744 488.931427,167.758423 
	C489.311371,167.977921 489.691315,168.197418 490.071259,168.416916 
	C493.257721,165.229294 496.555206,162.143982 499.607117,158.832336 
	C505.615601,152.312469 511.064209,145.191696 517.643433,139.328278 
	C519.981567,137.244522 524.930420,138.090225 528.687500,137.598648 
	C528.847168,137.989700 529.006836,138.380753 529.166504,138.771805 
	C527.085022,141.370178 525.136292,144.089752 522.895508,146.542603 
	C517.660767,152.272720 512.388855,157.977600 506.909790,163.471024 
	C505.070343,165.315247 505.548401,166.483109 506.723846,168.276474 
	C514.548645,180.214676 522.281372,192.213242 530.090088,204.263184 
	C520.991943,206.245697 519.502014,205.360641 513.982971,196.167023 
	C509.106018,188.042953 503.960968,180.079788 498.883209,171.963837 
	C492.199768,177.449142 487.453552,183.373657 488.898682,192.575363 
	C489.507080,196.449295 489.000000,200.498398 489.000000,204.732590 
	C485.681488,204.732590 482.610718,204.732590 479.000000,204.732590 
	C479.000000,189.009903 479.000000,173.255157 479.000000,157.000534 
z"/>
<path fill="#FFFFFF" opacity="1.000000" stroke="none" 
	d="
M671.450806,176.000488 
	C679.204407,176.000046 686.502258,176.000046 693.796631,176.000046 
	C693.707336,165.755295 691.040771,162.769424 681.614929,163.086288 
	C675.812439,163.281342 670.038391,164.322311 664.165039,164.993378 
	C664.165039,163.039505 664.165039,160.426147 664.165039,157.461380 
	C672.787659,154.853424 681.653625,153.892181 690.759583,155.982513 
	C697.922913,157.626892 701.839600,161.870712 701.951050,169.136292 
	C702.132751,180.979202 702.000122,192.826935 702.000122,204.870300 
	C699.423889,203.971924 695.095581,207.530380 693.671997,203.205353 
	C686.636169,204.159103 679.869629,205.480316 673.049072,205.880096 
	C666.993713,206.235001 660.784912,201.879166 659.055969,197.158279 
	C656.627625,190.527237 658.015869,183.548065 663.203796,179.451874 
	C665.363037,177.747025 668.372253,177.118729 671.450806,176.000488 
M680.265503,198.000000 
	C689.804016,197.403046 694.678040,192.012756 693.506042,183.000656 
	C687.429932,183.000656 681.302917,182.847763 675.187744,183.050812 
	C670.597900,183.203217 667.891418,186.663818 668.000061,191.626495 
	C668.093445,195.895554 670.387390,197.884659 675.375610,197.995499 
	C676.704529,198.025040 678.034668,197.999985 680.265503,198.000000 
z"/>
<path fill="#FFFFFF" opacity="1.000000" stroke="none" 
	d="
M907.560425,204.841812 
	C900.494629,201.203094 896.726379,194.233261 898.297058,188.283707 
	C900.644836,179.390411 905.048950,176.006241 914.274109,175.999374 
	C920.435242,175.994781 926.596313,175.988617 932.757385,175.962845 
	C933.064819,175.961563 933.371521,175.766525 933.676880,175.656860 
	C934.344238,165.601044 929.943726,162.761765 922.247009,163.013718 
	C919.127075,163.115814 915.984619,163.176132 912.902893,163.612335 
	C910.047424,164.016541 907.259338,164.896820 904.225586,165.618881 
	C904.225586,162.912613 904.225586,160.209198 904.225586,156.617905 
	C910.775269,156.081268 917.366760,155.207901 923.973450,155.072571 
	C935.955444,154.827209 942.347656,160.463058 942.893494,172.260742 
	C943.391541,183.026611 942.999084,193.833679 942.999084,205.597778 
	C939.316406,204.816162 936.208801,204.156601 933.101196,203.497025 
	C933.188843,202.924332 933.276550,202.351624 933.364258,201.778931 
	C925.329224,206.679550 916.773743,207.018173 907.560425,204.841812 
M933.815308,191.673569 
	C933.815308,188.904053 933.815308,186.134552 933.815308,183.000580 
	C927.501343,183.000580 921.387573,182.876053 915.281738,183.043289 
	C911.039490,183.159500 908.061768,186.423248 907.999939,190.530106 
	C907.923767,195.589279 909.518921,197.313766 914.787720,198.002396 
	C921.847717,198.925171 927.913635,196.891098 933.815308,191.673569 
z"/>
<path fill="#FFFFFF" opacity="1.000000" stroke="none" 
	d="
M446.000000,85.000000 
	C446.000000,133.566147 446.000000,181.632278 446.000000,229.848282 
	C443.930847,229.848282 442.303741,229.848282 440.337769,229.848282 
	C440.337769,160.119308 440.337769,90.309242 440.337769,20.249582 
	C442.014557,20.249582 443.750214,20.249582 446.000000,20.249582 
	C446.000000,41.651745 446.000000,63.075871 446.000000,85.000000 
z"/>
<path fill="#FFFFFF" opacity="1.000000" stroke="none" 
	d="
M1007.682678,165.543610 
	C1006.363098,155.004868 1006.628601,157.417068 1017.229431,155.328796 
	C1023.216858,154.149323 1029.919678,155.562286 1036.114624,156.764282 
	C1042.459839,157.995468 1045.565796,163.323975 1045.837646,169.190826 
	C1046.382080,180.945312 1045.999268,192.742767 1045.999268,204.759979 
	C1043.449097,204.759979 1041.177124,204.759979 1038.452026,204.759979 
	C1038.212891,203.760406 1037.902588,202.462616 1037.566162,201.056061 
	C1037.018188,201.179108 1036.464111,201.150681 1036.114624,201.404266 
	C1026.672974,208.254715 1012.272949,207.863510 1005.151917,200.680191 
	C1000.171204,195.655991 1001.385193,189.765366 1003.145569,184.219604 
	C1004.867554,178.794815 1009.725220,176.377777 1015.117676,176.092499 
	C1022.226074,175.716446 1029.369385,176.000031 1036.438232,176.000031 
	C1038.496094,165.937698 1033.988159,162.970413 1025.904663,163.132172 
	C1019.947998,163.251373 1014.015564,164.585175 1007.682678,165.543610 
M1032.495361,195.046692 
	C1038.739624,192.688812 1036.929199,187.725845 1036.711060,183.000458 
	C1030.695312,183.000458 1025.044922,182.863129 1019.404724,183.042252 
	C1014.564209,183.195969 1010.930969,186.664490 1011.000488,190.641647 
	C1011.077759,195.057846 1014.187195,198.204590 1019.147766,197.890350 
	C1023.436462,197.618683 1027.665161,196.401337 1032.495361,195.046692 
z"/>
<path fill="#FFFFFF" opacity="1.000000" stroke="none" 
	d="
M542.858704,157.624207 
	C551.300903,154.003784 559.772156,153.488449 567.656311,157.256271 
	C571.097412,158.900757 574.463379,162.815613 575.714905,166.441116 
	C577.671204,172.108566 577.801331,178.406448 578.777771,184.922485 
	C565.879822,184.922485 554.127014,184.922485 542.363464,184.922485 
	C542.795654,194.834412 548.208374,197.578781 555.004883,197.853989 
	C561.456848,198.115265 567.957764,197.165680 574.705750,196.731247 
	C574.705750,198.491699 574.705750,200.902695 574.705750,203.514694 
	C566.620422,206.359268 558.299561,206.648560 549.601624,205.135330 
	C540.757019,203.596542 534.148071,196.900635 533.247253,187.800644 
	C532.443359,179.679047 531.310730,170.955933 536.910706,163.638351 
	C538.531616,161.520218 540.680908,159.806381 542.858704,157.624207 
M545.717224,178.000000 
	C553.453491,178.000000 561.189758,178.000000 568.850952,178.000000 
	C569.949036,167.126343 565.645081,161.908554 554.885681,162.991409 
	C554.229065,163.057495 553.558960,162.976105 552.896851,163.003769 
	C546.682861,163.263321 540.910461,170.255997 542.111023,176.320816 
	C542.251038,177.028214 543.848083,177.447174 545.717224,178.000000 
z"/>
<path fill="#FFFFFF" opacity="1.000000" stroke="none" 
	d="
M794.947693,185.000000 
	C785.802490,185.000000 777.149048,185.000000 768.521912,185.000000 
	C767.791504,191.703033 772.665466,197.583649 779.908142,197.877625 
	C786.382446,198.140427 792.898193,197.379608 799.675171,197.057144 
	C799.675171,198.486725 799.675171,200.881683 799.675171,203.867722 
	C788.488647,206.377380 777.139221,208.837326 766.445923,201.080841 
	C762.785095,198.425446 760.954407,194.854919 759.802246,190.468857 
	C757.271484,180.834976 757.504578,171.779755 762.939880,163.078705 
	C765.865479,158.395172 770.338379,156.593765 775.244812,155.288422 
	C787.208313,152.105515 798.343140,156.853394 802.043457,167.880554 
	C803.751038,172.969055 802.961731,178.895432 803.338989,185.000000 
	C800.315002,185.000000 797.877258,185.000000 794.947693,185.000000 
M794.136475,177.961731 
	C793.666199,174.382675 794.023865,170.404312 792.534790,167.316620 
	C790.205078,162.486099 781.846313,161.347443 774.596863,163.997177 
	C769.973755,165.686966 767.613953,170.905472 768.447388,177.997482 
	C776.669128,177.997482 784.932373,177.997482 794.136475,177.961731 
z"/>
<path fill="#FFFFFF" opacity="1.000000" stroke="none" 
	d="
M959.254395,180.657562 
	C955.647705,172.420944 952.262817,164.510056 948.884399,156.614273 
	C949.456421,156.315933 949.723877,156.058792 949.999512,156.049713 
	C959.209229,155.746094 959.102295,155.791641 962.987183,165.668335 
	C966.323547,174.150833 969.927063,182.528671 973.471252,190.927994 
	C973.687134,191.439651 974.420593,191.732941 975.251099,192.398758 
	C980.141907,181.678284 985.344910,171.428391 989.426453,160.749893 
	C991.024719,156.568329 992.914185,155.564880 996.703308,155.977417 
	C998.007568,156.119400 999.340271,156.000000 1001.288452,156.000000 
	C998.331909,163.152359 995.705872,169.948303 992.736877,176.591019 
	C987.440857,188.440140 982.106689,200.278397 976.456482,211.960678 
	C973.183533,218.727585 968.448486,223.571487 959.836182,223.099197 
	C951.486938,222.641327 951.434509,222.961411 952.349365,214.287781 
	C961.627258,216.518600 965.689453,214.402405 969.138123,205.390366 
	C969.462830,204.542038 969.419006,203.315216 969.054810,202.477982 
	C965.926147,195.285172 962.684265,188.141602 959.254395,180.657562 
z"/>
<path fill="#FFFFFF" opacity="1.000000" stroke="none" 
	d="
M746.748413,164.527496 
	C740.034729,163.656479 733.518250,161.313034 726.950928,164.083649 
	C725.342712,164.762131 723.346375,166.733246 723.263733,168.207397 
	C723.177063,169.752045 724.818848,172.127167 726.334106,172.889679 
	C730.745483,175.109543 735.428772,176.820892 740.083496,178.517776 
	C747.267273,181.136612 751.720154,186.819092 750.985168,192.741409 
	C749.990479,200.756317 744.240723,205.995117 735.747375,205.926743 
	C728.608337,205.869263 721.474426,205.172852 714.192261,204.750839 
	C714.192261,201.344086 714.192261,198.901810 714.192261,196.210648 
	C720.049011,196.814941 725.788574,197.442612 731.536987,197.973358 
	C732.844604,198.094116 734.317261,198.214966 735.480286,197.750580 
	C738.050049,196.724380 741.125000,196.358185 741.117920,192.177658 
	C741.111267,188.273804 738.655212,187.123856 735.902222,186.042816 
	C730.551208,183.941635 725.138123,181.998871 719.756042,179.976562 
	C714.262390,177.912369 713.145996,172.800491 713.098450,167.107620 
	C713.056641,162.107193 717.410034,156.559921 722.223694,156.171860 
	C729.642212,155.573807 737.146606,155.933456 744.608154,156.130127 
	C745.424683,156.151657 746.676697,157.669754 746.887512,158.670517 
	C747.256531,160.422287 746.974243,162.311234 746.748413,164.527496 
z"/>
<path fill="#FFFFFF" opacity="1.000000" stroke="none" 
	d="
M640.135864,155.999847 
	C643.583252,156.000000 646.549500,156.000000 649.753784,156.000000 
	C649.753784,158.353668 649.753784,160.422562 649.753784,162.879608 
	C645.686035,162.879608 641.599609,162.879608 637.008240,162.879608 
	C637.008240,173.006409 636.773560,182.768509 637.144409,192.507553 
	C637.263184,195.625458 639.143311,198.392136 643.275696,198.037766 
	C645.693481,197.830429 648.143555,197.999954 650.672729,197.999954 
	C651.730347,205.786621 651.534424,205.666748 643.204285,206.075806 
	C629.804504,206.733810 627.735840,199.412048 627.108582,189.212509 
	C626.580933,180.633575 627.000000,171.996429 627.000000,163.015869 
	C624.548950,163.015869 622.467896,163.015869 620.205566,163.015869 
	C620.205566,160.571838 620.205566,158.499725 620.205566,156.052277 
	C622.410278,156.052277 624.487732,156.052277 627.232910,156.052277 
	C626.025085,148.114807 626.089783,140.970901 637.000244,141.579239 
	C637.000244,145.205780 636.824646,149.193634 637.121582,153.145966 
	C637.197449,154.154953 638.769958,155.051498 640.135864,155.999847 
z"/>
<path fill="#FFFFFF" opacity="1.000000" stroke="none" 
	d="
M589.368652,204.579376 
	C589.050720,188.269821 589.050720,172.319168 589.050720,156.185791 
	C592.011719,156.185791 594.627502,156.185791 597.660400,156.185791 
	C597.844116,157.580811 598.046997,159.121521 598.264648,160.774094 
	C603.893799,158.683365 609.513977,156.595947 615.210083,154.480331 
	C616.855835,161.841934 616.781006,161.980148 610.506226,164.000031 
	C598.000000,168.025803 598.000000,168.025803 598.000000,180.818527 
	C598.000000,188.768539 598.000000,196.718536 598.000000,204.938263 
	C594.938293,204.938263 592.312378,204.938263 589.368652,204.579376 
z"/>
<path fill="#000000" opacity="1.000000" stroke="none" 
	d="
M1034.770264,67.941116 
	C1038.373413,69.493057 1039.360718,71.868919 1039.093994,75.409775 
	C1038.720947,80.365791 1039.042969,85.371529 1038.969971,90.354568 
	C1038.951538,91.608719 1038.994019,93.254677 1038.270264,94.042061 
	C1034.470459,98.176086 1029.265381,98.656853 1024.278442,97.822174 
	C1020.542786,97.196960 1016.498169,95.212959 1016.316833,90.609329 
	C1016.119446,85.599419 1015.991943,80.304321 1017.364258,75.577888 
	C1019.719421,67.466827 1025.673706,65.178894 1034.770264,67.941116 
z"/>
<path fill="#000000" opacity="1.000000" stroke="none" 
	d="
M1088.667969,91.798904 
	C1090.110229,87.063690 1094.212891,87.590103 1097.261353,87.145874 
	C1101.300049,86.557350 1105.488892,87.000877 1109.792480,87.000877 
	C1110.193237,91.275192 1110.843994,95.248466 1106.616577,97.744072 
	C1101.696655,100.648468 1096.300415,101.259842 1091.285034,98.813538 
	C1089.621094,98.001953 1089.314453,94.407494 1088.667969,91.798904 
z"/>
<path fill="#000000" opacity="1.000000" stroke="none" 
	d="
M961.816040,87.000107 
	C965.162231,87.840408 966.166077,92.601234 964.062378,95.401657 
	C960.819153,99.719032 950.001221,101.957390 945.696411,98.729324 
	C944.201904,97.608620 942.880249,94.718895 943.261047,93.041573 
	C943.695618,91.127098 945.886353,88.619186 947.722168,88.212517 
	C952.134827,87.235046 956.786133,87.334839 961.816040,87.000107 
z"/>
<path fill="#000000" opacity="1.000000" stroke="none" 
	d="
M839.345337,68.167763 
	C844.385315,67.385231 849.278442,65.898331 853.817200,66.624893 
	C858.416748,67.361183 859.585876,71.842537 858.834534,76.684425 
	C851.396790,76.684425 843.861511,76.684425 834.873291,76.684425 
	C836.459167,73.546761 837.751160,70.990616 839.345337,68.167763 
z"/>
<path fill="#000000" opacity="1.000000" stroke="none" 
	d="
M679.814880,198.000000 
	C678.034668,197.999985 676.704529,198.025040 675.375610,197.995499 
	C670.387390,197.884659 668.093445,195.895554 668.000061,191.626495 
	C667.891418,186.663818 670.597900,183.203217 675.187744,183.050812 
	C681.302917,182.847763 687.429932,183.000656 693.506042,183.000656 
	C694.678040,192.012756 689.804016,197.403046 679.814880,198.000000 
z"/>
<path fill="#000000" opacity="1.000000" stroke="none" 
	d="
M933.429688,191.830536 
	C927.913635,196.891098 921.847717,198.925171 914.787720,198.002396 
	C909.518921,197.313766 907.923767,195.589279 907.999939,190.530106 
	C908.061768,186.423248 911.039490,183.159500 915.281738,183.043289 
	C921.387573,182.876053 927.501343,183.000580 933.815308,183.000580 
	C933.815308,186.134552 933.815308,188.904053 933.429688,191.830536 
z"/>
<path fill="#000000" opacity="1.000000" stroke="none" 
	d="
M1032.207886,195.324356 
	C1027.665161,196.401337 1023.436462,197.618683 1019.147766,197.890350 
	C1014.187195,198.204590 1011.077759,195.057846 1011.000488,190.641647 
	C1010.930969,186.664490 1014.564209,183.195969 1019.404724,183.042252 
	C1025.044922,182.863129 1030.695312,183.000458 1036.711060,183.000458 
	C1036.929199,187.725845 1038.739624,192.688812 1032.207886,195.324356 
z"/>
<path fill="#000000" opacity="1.000000" stroke="none" 
	d="
M545.243408,177.999924 
	C543.848083,177.447174 542.251038,177.028214 542.111023,176.320816 
	C540.910461,170.255997 546.682861,163.263321 552.896851,163.003769 
	C553.558960,162.976105 554.229065,163.057495 554.885681,162.991409 
	C565.645081,161.908554 569.949036,167.126343 568.850952,178.000000 
	C561.189758,178.000000 553.453491,178.000000 545.243408,177.999924 
z"/>
<path fill="#000000" opacity="1.000000" stroke="none" 
	d="
M793.666016,177.979614 
	C784.932373,177.997482 776.669128,177.997482 768.447388,177.997482 
	C767.613953,170.905472 769.973755,165.686966 774.596863,163.997177 
	C781.846313,161.347443 790.205078,162.486099 792.534790,167.316620 
	C794.023865,170.404312 793.666199,174.382675 793.666016,177.979614 
z"/>
</svg>